<svg viewBox="0 0 200 200" xmlns="http://www.w3.org/2000/svg">
<rect width="200" height="200" fill="#F2E8D5"/>
<rect x="0.0" y="0.0" width="40.0" height="40.0" fill="#F2E8D5"/><rect x="40.0" y="0.0" width="40.0" height="40.0" fill="#7A8B69"/><rect x="80.0" y="0.0" width="40.0" height="40.0" fill="#F2E8D5"/><rect x="120.0" y="0.0" width="40.0" height="40.0" fill="#7A8B69"/><rect x="160.0" y="0.0" width="40.0" height="40.0" fill="#F2E8D5"/><rect x="0.0" y="40.0" width="40.0" height="40.0" fill="#7A8B69"/><rect x="40.0" y="40.0" width="40.0" height="40.0" fill="#F2E8D5"/><rect x="80.0" y="40.0" width="40.0" height="40.0" fill="#7A8B69"/><rect x="120.0" y="40.0" width="40.0" height="40.0" fill="#F2E8D5"/><rect x="160.0" y="40.0" width="40.0" height="40.0" fill="#7A8B69"/><rect x="0.0" y="80.0" width="40.0" height="40.0" fill="#F2E8D5"/><rect x="40.0" y="80.0" width="40.0" height="40.0" fill="#7A8B69"/><rect x="80.0" y="80.0" width="40.0" height="40.0" fill="#F2E8D5"/><rect x="120.0" y="80.0" width="40.0" height="40.0" fill="#7A8B69"/><rect x="160.0" y="80.0" width="40.0" height="40.0" fill="#F2E8D5"/><rect x="0.0" y="120.0" width="40.0" height="40.0" fill="#7A8B69"/><rect x="40.0" y="120.0" width="40.0" height="40.0" fill="#F2E8D5"/><rect x="80.0" y="120.0" width="40.0" height="40.0" fill="#7A8B69"/><rect x="120.0" y="120.0" width="40.0" height="40.0" fill="#F2E8D5"/><rect x="160.0" y="120.0" width="40.0" height="40.0" fill="#7A8B69"/><rect x="0.0" y="160.0" width="40.0" height="40.0" fill="#F2E8D5"/><rect x="40.0" y="160.0" width="40.0" height="40.0" fill="#7A8B69"/><rect x="80.0" y="160.0" width="40.0" height="40.0" fill="#F2E8D5"/><rect x="120.0" y="160.0" width="40.0" height="40.0" fill="#7A8B69"/><rect x="160.0" y="160.0" width="40.0" height="40.0" fill="#F2E8D5"/>
</svg>