<svg viewBox="0 0 200 200" xmlns="http://www.w3.org/2000/svg">
<rect width="200" height="200" fill="#F2E8D5"/>
<rect x="0" y="0" width="200" height="200" fill="#D4A017"/><polygon points="0,50 50,50 25,0" fill="#7A8B69"/><rect x="62" y="12" width="26" height="26" fill="#4A3728"/><polygon points="100,50 150,50 125,0" fill="#7A8B69"/><rect x="162" y="12" width="26" height="26" fill="#4A3728"/><rect x="12" y="62" width="26" height="26" fill="#4A3728"/><polygon points="50,100 100,100 75,50" fill="#7A8B69"/><rect x="112" y="62" width="26" height="26" fill="#4A3728"/><polygon points="150,100 200,100 175,50" fill="#7A8B69"/><polygon points="0,150 50,150 25,100" fill="#7A8B69"/><rect x="62" y="112" width="26" height="26" fill="#4A3728"/><polygon points="100,150 150,150 125,100" fill="#7A8B69"/><rect x="162" y="112" width="26" height="26" fill="#4A3728"/><rect x="12" y="162" width="26" height="26" fill="#4A3728"/><polygon points="50,200 100,200 75,150" fill="#7A8B69"/><rect x="112" y="162" width="26" height="26" fill="#4A3728"/><polygon points="150,200 200,200 175,150" fill="#7A8B69"/>
</svg>